<svg width="16" height="16" viewBox="0 0 16 16" fill="none" xmlns="http://www.w3.org/2000/svg">
<path d="M3.51233 6.50007C3.51149 5.90731 3.62794 5.32024 3.85497 4.77267C4.08199 4.2251 4.41511 3.72786 4.83512 3.30959C5.25514 2.89132 5.75376 2.56027 6.30227 2.33552C6.85077 2.11078 7.43832 1.99677 8.03108 2.00007C10.5061 2.01882 12.4873 4.07507 12.4873 6.55632V7.00007C12.4873 9.23757 12.9561 10.5376 13.3686 11.2501C13.4124 11.326 13.4355 11.412 13.4356 11.4996C13.4356 11.5873 13.4127 11.6734 13.369 11.7493C13.3253 11.8253 13.2625 11.8884 13.1867 11.9324C13.1109 11.9764 13.0249 11.9998 12.9373 12.0001H3.06233C2.97471 11.9998 2.88871 11.9764 2.81294 11.9324C2.73718 11.8884 2.67431 11.8253 2.63063 11.7493C2.58696 11.6734 2.56401 11.5873 2.56409 11.4996C2.56416 11.412 2.58727 11.326 2.63108 11.2501C3.04358 10.5376 3.51233 9.23757 3.51233 7.00007V6.50007Z" stroke="#3498DB" stroke-linecap="round" stroke-linejoin="round"/>
<path d="M6 12V12.5C6 13.0304 6.21071 13.5391 6.58579 13.9142C6.96086 14.2893 7.46957 14.5 8 14.5C8.53043 14.5 9.03914 14.2893 9.41421 13.9142C9.78929 13.5391 10 13.0304 10 12.5V12" stroke="#3498DB" stroke-linecap="round" stroke-linejoin="round"/>
</svg>
