<svg width="35" height="35" viewBox="0 0 35 35" fill="none" xmlns="http://www.w3.org/2000/svg">
<path d="M13.125 16.4062C19.1656 16.4062 24.0625 14.2027 24.0625 11.4844C24.0625 8.7661 19.1656 6.5625 13.125 6.5625C7.08439 6.5625 2.1875 8.7661 2.1875 11.4844C2.1875 14.2027 7.08439 16.4062 13.125 16.4062Z" stroke="white" stroke-width="2.5" stroke-linecap="round" stroke-linejoin="round"/>
<path d="M2.1875 11.4844V16.9531C2.1875 19.6738 7.08203 21.875 13.125 21.875C19.168 21.875 24.0625 19.6738 24.0625 16.9531V11.4844" stroke="white" stroke-width="2.5" stroke-linecap="round" stroke-linejoin="round"/>
<path d="M8.75 15.9961V21.4648" stroke="white" stroke-width="2.5" stroke-linecap="round" stroke-linejoin="round"/>
<path d="M24.0625 13.2208C29.0527 13.6856 32.8125 15.668 32.8125 18.0469C32.8125 20.7676 27.918 22.9688 21.875 22.9688C19.1953 22.9688 16.7344 22.5313 14.834 21.8204" stroke="white" stroke-width="2.5" stroke-linecap="round" stroke-linejoin="round"/>
<path d="M10.9375 21.7793V23.5156C10.9375 26.2363 15.832 28.4375 21.875 28.4375C27.918 28.4375 32.8125 26.2363 32.8125 23.5156V18.0469" stroke="white" stroke-width="2.5" stroke-linecap="round" stroke-linejoin="round"/>
<path d="M26.25 22.5586V28.0273" stroke="white" stroke-width="2.5" stroke-linecap="round" stroke-linejoin="round"/>
<path d="M17.5 15.9961V28.0273" stroke="white" stroke-width="2.5" stroke-linecap="round" stroke-linejoin="round"/>
</svg>
