<svg width="19" height="19" viewBox="0 0 19 19" fill="none" xmlns="http://www.w3.org/2000/svg">
<path d="M16.0832 11.3258C14.9175 11.6527 13.6857 11.6634 12.5145 11.3568C11.3433 11.0503 10.2747 10.4375 9.41863 9.58138C8.56254 8.72529 7.94975 7.65675 7.64318 6.48551C7.33661 5.31427 7.34733 4.08254 7.67422 2.91681C6.52491 3.2367 5.47948 3.85213 4.64204 4.70179C3.80461 5.55146 3.2044 6.60571 2.9012 7.75953C2.598 8.91335 2.6024 10.1265 2.91395 11.2781C3.22551 12.4297 3.83334 13.4795 4.67691 14.3231C5.52049 15.1667 6.57035 15.7745 7.72195 16.0861C8.87354 16.3976 10.0867 16.402 11.2405 16.0988C12.3943 15.7956 13.4486 15.1954 14.2982 14.358C15.1479 13.5205 15.7633 12.4751 16.0832 11.3258V11.3258Z" stroke="#3498DB" stroke-linecap="round" stroke-linejoin="round"/>
</svg>
