<svg width="16" height="16" viewBox="0 0 16 16" fill="none" xmlns="http://www.w3.org/2000/svg">
<path d="M6.03692 13.3334H3.1782C3.0425 13.3334 2.91237 13.2795 2.81642 13.1835C2.72047 13.0876 2.66657 12.9574 2.66657 12.8218V9.96303C2.66634 9.8966 2.67921 9.83077 2.70445 9.76931C2.72969 9.70786 2.7668 9.65198 2.81366 9.60489L10.4881 1.93047C10.5357 1.88212 10.5924 1.84373 10.655 1.81753C10.7176 1.79133 10.7848 1.77783 10.8526 1.77783C10.9205 1.77783 10.9876 1.79133 11.0502 1.81753C11.1128 1.84373 11.1696 1.88212 11.2172 1.93047L14.0695 4.78279C14.1178 4.8304 14.1562 4.88715 14.1824 4.94973C14.2086 5.01231 14.2221 5.07948 14.2221 5.14733C14.2221 5.21518 14.2086 5.28235 14.1824 5.34493C14.1562 5.40751 14.1178 5.46426 14.0695 5.51186L6.39506 13.1863C6.34797 13.2332 6.29209 13.2703 6.23064 13.2955C6.16919 13.3207 6.10336 13.3336 6.03692 13.3334V13.3334Z" stroke="white" stroke-linecap="round" stroke-linejoin="round"/>
<path d="M8.88898 3.55591L12.4445 7.11146" stroke="white" stroke-linecap="round" stroke-linejoin="round"/>
</svg>
