<svg width="10" height="10" viewBox="0 0 10 10" fill="none" xmlns="http://www.w3.org/2000/svg">
<path d="M2.19525 4.06254C2.19473 3.69207 2.26751 3.32515 2.4094 2.98292C2.55129 2.64069 2.75949 2.32992 3.022 2.06849C3.28451 1.80707 3.59615 1.60017 3.93896 1.4597C4.28178 1.31924 4.649 1.24798 5.01947 1.25004C6.56634 1.26176 7.80462 2.54692 7.80462 4.0977V4.37504C7.80462 5.77348 8.09759 6.58598 8.35541 7.03129C8.38279 7.07872 8.39723 7.13251 8.39727 7.18727C8.39732 7.24203 8.38298 7.29584 8.35568 7.34332C8.32839 7.39079 8.28909 7.43026 8.24174 7.45777C8.19439 7.48527 8.14064 7.49985 8.08587 7.50004H1.914C1.85924 7.49985 1.80549 7.48527 1.75814 7.45777C1.71078 7.43026 1.67149 7.39079 1.64419 7.34332C1.61689 7.29584 1.60255 7.24203 1.6026 7.18727C1.60265 7.13251 1.61709 7.07872 1.64447 7.03129C1.90228 6.58598 2.19525 5.77348 2.19525 4.37504V4.06254Z" stroke="white" stroke-linecap="round" stroke-linejoin="round"/>
<path d="M3.75 7.5V7.8125C3.75 8.14402 3.8817 8.46196 4.11612 8.69638C4.35054 8.9308 4.66848 9.0625 5 9.0625C5.33152 9.0625 5.64946 8.9308 5.88388 8.69638C6.1183 8.46196 6.25 8.14402 6.25 7.8125V7.5" stroke="white" stroke-linecap="round" stroke-linejoin="round"/>
</svg>
