<svg width="22" height="22" viewBox="0 0 22 22" fill="none" xmlns="http://www.w3.org/2000/svg">
<path d="M11.3783 16.3883L15.7096 19.1383C16.2682 19.4906 16.9557 18.9664 16.7924 18.3219L15.5377 13.3891C15.5038 13.2524 15.5092 13.1088 15.5533 12.975C15.5974 12.8412 15.6784 12.7226 15.7869 12.6328L19.6713 9.39299C20.1783 8.9719 19.9205 8.12111 19.2588 8.07815L14.1885 7.75158C14.0502 7.74353 13.9172 7.69536 13.8057 7.61295C13.6943 7.53053 13.6093 7.41745 13.5612 7.28752L11.6705 2.52658C11.6205 2.389 11.5293 2.27015 11.4094 2.18616C11.2895 2.10218 11.1466 2.05713 11.0002 2.05713C10.8538 2.05713 10.711 2.10218 10.591 2.18616C10.4711 2.27015 10.38 2.389 10.3299 2.52658L8.43929 7.28752C8.3911 7.41745 8.30611 7.53053 8.1947 7.61295C8.08329 7.69536 7.95029 7.74353 7.81194 7.75158L2.74163 8.07815C2.07991 8.12111 1.8221 8.9719 2.32913 9.39299L6.21351 12.6328C6.32208 12.7226 6.40307 12.8412 6.44717 12.975C6.49126 13.1088 6.49665 13.2524 6.46273 13.3891L5.30257 17.961C5.10491 18.7344 5.92991 19.3617 6.59163 18.9406L10.6221 16.3883C10.7351 16.3164 10.8663 16.2783 11.0002 16.2783C11.1342 16.2783 11.2653 16.3164 11.3783 16.3883V16.3883Z" stroke="#808080" stroke-width="1.5" stroke-linecap="round" stroke-linejoin="round"/>
</svg>
