<svg width="15" height="15" viewBox="0 0 15 15" fill="none" xmlns="http://www.w3.org/2000/svg">
<path d="M8.00986 4.21318C8.13042 4.07668 8.2939 4 8.46437 4C8.63483 4 8.79832 4.07668 8.91888 4.21318L11.8118 7.48963C11.9323 7.62617 12 7.81133 12 8.0044C12 8.19746 11.9323 8.38262 11.8118 8.51916L8.91888 11.7956C8.79763 11.9282 8.63524 12.0016 8.46668 12C8.29813 11.9983 8.13689 11.9217 8.01769 11.7867C7.8985 11.6517 7.83089 11.4691 7.82943 11.2782C7.82796 11.0873 7.89276 10.9034 8.00986 10.7661L9.7501 8.7325H3.64287C3.47237 8.7325 3.30885 8.65579 3.18829 8.51924C3.06773 8.3827 3 8.1975 3 8.0044C3 7.81129 3.06773 7.6261 3.18829 7.48955C3.30885 7.35301 3.47237 7.2763 3.64287 7.2763H9.7501L8.00986 5.24271C7.88934 5.10617 7.82164 4.92101 7.82164 4.72794C7.82164 4.53488 7.88934 4.34972 8.00986 4.21318Z" fill="#6C757D"/>
</svg>
