<svg width="10" height="10" viewBox="0 0 10 10" fill="none" xmlns="http://www.w3.org/2000/svg">
<path d="M8.125 4.0625C8.125 6.875 5 9.0625 5 9.0625C5 9.0625 1.875 6.875 1.875 4.0625C1.875 3.2337 2.20424 2.43884 2.79029 1.85279C3.37634 1.26674 4.1712 0.9375 5 0.9375C5.8288 0.9375 6.62366 1.26674 7.20971 1.85279C7.79576 2.43884 8.125 3.2337 8.125 4.0625V4.0625Z" stroke="#3498DB" stroke-width="0.8" stroke-linecap="round" stroke-linejoin="round"/>
<path d="M5 5.3125C5.69036 5.3125 6.25 4.75286 6.25 4.0625C6.25 3.37214 5.69036 2.8125 5 2.8125C4.30964 2.8125 3.75 3.37214 3.75 4.0625C3.75 4.75286 4.30964 5.3125 5 5.3125Z" stroke="#3498DB" stroke-width="0.8" stroke-linecap="round" stroke-linejoin="round"/>
</svg>
