<svg width="14" height="14" viewBox="0 0 14 14" fill="none" xmlns="http://www.w3.org/2000/svg">
<path d="M6.99976 1.56702C7.97648 1.56702 8.91352 1.95459 9.60425 2.64514C10.2949 3.33582 10.6833 4.27287 10.6833 5.24963C10.6833 5.93423 10.4533 6.73166 10.0808 7.56311C9.71061 8.38944 9.21258 9.22111 8.70972 9.96643C8.20779 10.7103 7.70547 11.3615 7.32788 11.8268C7.20426 11.9791 7.0917 12.1096 6.99976 12.2184C6.90787 12.1097 6.7961 11.9789 6.67261 11.8268C6.29496 11.3615 5.79184 10.7105 5.28979 9.96643C4.78694 9.22112 4.28987 8.38943 3.91968 7.56311C3.54719 6.73161 3.31714 5.93427 3.31714 5.24963C3.31722 4.27287 3.70458 3.33582 4.39526 2.64514C5.08595 1.95446 6.02299 1.5671 6.99976 1.56702ZM6.99976 3.39124C6.50701 3.39132 6.03471 3.58773 5.68628 3.93616C5.33785 4.28459 5.14144 4.75689 5.14136 5.24963C5.14136 5.74249 5.33777 6.21558 5.68628 6.56409C5.99114 6.86888 6.39091 7.05696 6.81616 7.09924L6.99976 7.10803C7.2438 7.10803 7.48621 7.05982 7.71167 6.96643C7.93693 6.87305 8.14178 6.73652 8.31421 6.56409C8.48664 6.39166 8.62317 6.18681 8.71655 5.96155C8.80994 5.73608 8.85815 5.49367 8.85815 5.24963C8.85807 4.75697 8.66254 4.28457 8.31421 3.93616C8.00918 3.63113 7.6089 3.44317 7.18335 3.401L6.99976 3.39124Z" fill="#3498DB" stroke="#103C59" stroke-width="0.8"/>
</svg>
