<svg width="20" height="20" viewBox="0 0 20 20" fill="none" xmlns="http://www.w3.org/2000/svg">
<path d="M10 17.5C14.1421 17.5 17.5 14.1421 17.5 10C17.5 5.85786 14.1421 2.5 10 2.5C5.85786 2.5 2.5 5.85786 2.5 10C2.5 14.1421 5.85786 17.5 10 17.5Z" stroke="#DD4D4D" stroke-width="1.5" stroke-miterlimit="10"/>
<path d="M7.1875 8.25C7.29105 8.25 7.375 8.33395 7.375 8.4375C7.375 8.54105 7.29105 8.625 7.1875 8.625C7.08395 8.625 7 8.54105 7 8.4375C7 8.33395 7.08395 8.25 7.1875 8.25Z" fill="#DD4D4D" stroke="#DD4D4D" stroke-width="1.5"/>
<path d="M12.8125 8.25C12.9161 8.25 13 8.33395 13 8.4375C13 8.54105 12.9161 8.625 12.8125 8.625C12.7089 8.625 12.625 8.54105 12.625 8.4375C12.625 8.33395 12.7089 8.25 12.8125 8.25Z" fill="#DD4D4D" stroke="#DD4D4D" stroke-width="1.5"/>
<path d="M7.1875 8.25C7.29105 8.25 7.375 8.33395 7.375 8.4375C7.375 8.54105 7.29105 8.625 7.1875 8.625C7.08395 8.625 7 8.54105 7 8.4375C7 8.33395 7.08395 8.25 7.1875 8.25Z" fill="#DD4D4D" stroke="#DD4D4D" stroke-width="1.5"/>
<path d="M12.8125 8.25C12.9161 8.25 13 8.33395 13 8.4375C13 8.54105 12.9161 8.625 12.8125 8.625C12.7089 8.625 12.625 8.54105 12.625 8.4375C12.625 8.33395 12.7089 8.25 12.8125 8.25Z" fill="#DD4D4D" stroke="#DD4D4D" stroke-width="1.5"/>
<path d="M13.25 13.75C12.9196 13.1808 12.4455 12.7084 11.8751 12.3799C11.3048 12.0515 10.6582 11.8787 10 11.8787C9.34184 11.8787 8.69523 12.0515 8.12486 12.3799C7.5545 12.7084 7.0804 13.1808 6.75 13.75" stroke="#DD4D4D" stroke-width="1.5" stroke-linecap="round" stroke-linejoin="round"/>
</svg>
