<svg width="55" height="55" viewBox="0 0 55 55" fill="none" xmlns="http://www.w3.org/2000/svg">
<path d="M28.4459 40.9708L39.274 47.8458C40.6705 48.7266 42.3892 47.4161 41.981 45.8047L38.8443 33.4727C38.7595 33.1309 38.773 32.7721 38.8832 32.4376C38.9935 32.1031 39.1959 31.8065 39.4674 31.5821L49.1783 23.4825C50.4459 22.4297 49.8014 20.3028 48.1471 20.1954L35.4713 19.379C35.1254 19.3588 34.7929 19.2384 34.5144 19.0324C34.2359 18.8263 34.0234 18.5436 33.9029 18.2188L29.1764 6.31646C29.0512 5.9725 28.8233 5.67537 28.5235 5.46541C28.2237 5.25545 27.8666 5.14282 27.5006 5.14282C27.1346 5.14282 26.7774 5.25545 26.4776 5.46541C26.1778 5.67537 25.9499 5.9725 25.8248 6.31646L21.0982 18.2188C20.9778 18.5436 20.7653 18.8263 20.4868 19.0324C20.2082 19.2384 19.8757 19.3588 19.5299 19.379L6.85409 20.1954C5.19979 20.3028 4.55526 22.4297 5.82284 23.4825L15.5338 31.5821C15.8052 31.8065 16.0077 32.1031 16.1179 32.4376C16.2282 32.7721 16.2416 33.1309 16.1568 33.4727L13.2564 44.9024C12.7623 46.836 14.8248 48.4044 16.4791 47.3516L26.5553 40.9708C26.8378 40.7911 27.1657 40.6957 27.5006 40.6957C27.8354 40.6957 28.1633 40.7911 28.4459 40.9708V40.9708Z" stroke="white" stroke-width="3" stroke-linecap="round" stroke-linejoin="round"/>
</svg>
