<svg width="24" height="24" viewBox="0 0 24 24" fill="none" xmlns="http://www.w3.org/2000/svg">
<path d="M4 17.5V8C4 6.38333 4.70833 5.325 6.125 4.825C7.54167 4.325 9.16667 4.05 11 4L11.75 2.5H7V1H17V2.5H13.75L13 4C14.9833 4.05 16.646 4.321 17.988 4.813C19.33 5.305 20.0007 6.36733 20 8V17.5C20 18.4833 19.6627 19.3127 18.988 19.988C18.3133 20.6633 17.484 21.0007 16.5 21L18 22.5V23H16L14 21H10L8 23H6V22.5L7.5 21C6.51667 21 5.68733 20.6627 5.012 19.988C4.33667 19.3133 3.99933 18.484 4 17.5ZM12 18C12.4167 18 12.771 17.8543 13.063 17.563C13.355 17.2717 13.5007 16.9173 13.5 16.5C13.4993 16.0827 13.3537 15.7287 13.063 15.438C12.7723 15.1473 12.418 15.0013 12 15C11.582 14.9987 11.228 15.1447 10.938 15.438C10.648 15.7313 10.502 16.0853 10.5 16.5C10.498 16.9147 10.644 17.269 10.938 17.563C11.232 17.857 11.586 18.0027 12 18ZM6 12H18V9H6V12Z" fill="#3498DB"/>
</svg>
